
<global>
ampeg_attack=0.002
ampeg_release=0.35
</global>

<group>
group_label=RR1
seq_length=2
seq_position=1

<region>
end=363001
hivel=127
key=A#2
lovel=1
offset=3398
sample=Electric_sustain_MF_A#2_RR1.opus
</region>

<region>
end=306273
hivel=127
key=A#3
lovel=1
offset=2110
sample=Electric_sustain_MF_A#3_RR1.opus
</region>

<region>
end=170053
hivel=127
key=A#4
lovel=1
offset=5909
sample=Electric_sustain_MF_A#4_RR1.opus
</region>

<region>
end=361432
hivel=127
key=A2
lovel=1
offset=1630
sample=Electric_sustain_MF_A2_RR1.opus
</region>

<region>
end=369442
hivel=127
key=A3
lovel=1
offset=8144
sample=Electric_sustain_MF_A3_RR1.opus
</region>

<region>
end=368447
hivel=127
key=A4
lovel=1
offset=7084
sample=Electric_sustain_MF_A4_RR1.opus
</region>

<region>
end=363448
hivel=127
key=B2
lovel=1
offset=2886
sample=Electric_sustain_MF_B2_RR1.opus
</region>

<region>
end=369600
hivel=127
key=B3
lovel=1
offset=8530
sample=Electric_sustain_MF_B3_RR1.opus
</region>

<region>
end=363382
hivel=127
key=B4
lovel=1
offset=2581
sample=Electric_sustain_MF_B4_RR1.opus
</region>

<region>
end=362210
hivel=127
key=C#3
lovel=1
offset=3650
sample=Electric_sustain_MF_C#3_RR1.opus
</region>

<region>
end=369600
hivel=127
key=C#4
lovel=1
offset=10071
sample=Electric_sustain_MF_C#4_RR1.opus
</region>

<region>
end=361114
hivel=127
key=C#5
lovel=1
offset=2019
sample=Electric_sustain_MF_C#5_RR1.opus
</region>

<region>
end=364509
hivel=127
key=C3
lovel=1
offset=4277
sample=Electric_sustain_MF_C3_RR1.opus
</region>

<region>
end=361258
hikey=C4
hivel=127
lokey=C4
lovel=1
offset=2163
sample=Electric_sustain_MF_C4_RR1.opus
</region>

<region>
end=369600
hivel=127
key=C5
lovel=1
offset=10062
sample=Electric_sustain_MF_C5_RR1.opus
</region>

<region>
end=361651
hivel=127
key=D#3
lovel=1
offset=2888
sample=Electric_sustain_MF_D#3_RR1.opus
</region>

<region>
end=361848
hivel=127
key=D#4
lovel=1
offset=1535
sample=Electric_sustain_MF_D#4_RR1.opus
</region>

<region>
end=345581
hivel=127
key=D#5
lovel=1
offset=3243
sample=Electric_sustain_MF_D#5_RR1.opus
</region>

<region>
end=339710
hivel=127
key=D3
lovel=1
offset=3370
sample=Electric_sustain_MF_D3_RR1.opus
</region>

<region>
end=362904
hivel=127
key=D4
lovel=1
offset=4322
sample=Electric_sustain_MF_D4_RR1.opus
</region>

<region>
end=361821
hivel=127
key=D5
lovel=1
offset=2515
sample=Electric_sustain_MF_D5_RR1.opus
</region>

<region>
end=360609
hikey=E2
hivel=127
lokey=C2
lovel=1
offset=2508
pitch_keycenter=E2
sample=Electric_sustain_MF_E2_RR1.opus
</region>

<region>
end=364218
hivel=127
key=E3
lovel=1
offset=4452
sample=Electric_sustain_MF_E3_RR1.opus
</region>

<region>
end=361696
hivel=127
key=E4
lovel=1
offset=2879
sample=Electric_sustain_MF_E4_RR1.opus
</region>

<region>
end=369600
hivel=127
key=E5
lovel=1
offset=9030
sample=Electric_sustain_MF_E5_RR1.opus
</region>

<region>
end=361111
hivel=127
key=F#2
lovel=1
offset=2228
sample=Electric_sustain_MF_F#2_RR1.opus
</region>

<region>
end=369600
hivel=127
key=F#3
lovel=1
offset=10315
sample=Electric_sustain_MF_F#3_RR1.opus
</region>

<region>
end=366971
hivel=127
key=F#4
lovel=1
offset=7586
sample=Electric_sustain_MF_F#4_RR1.opus
</region>

<region>
end=369600
hivel=127
key=F#5
lovel=1
offset=10378
sample=Electric_sustain_MF_F#5_RR1.opus
</region>

<region>
end=369600
hivel=127
key=F2
lovel=1
offset=8078
sample=Electric_sustain_MF_F2_RR1.opus
</region>

<region>
end=315631
hivel=127
key=F3
lovel=1
offset=3394
sample=Electric_sustain_MF_F3_RR1.opus
</region>

<region>
end=366967
hivel=127
key=F4
lovel=1
offset=7891
sample=Electric_sustain_MF_F4_RR1.opus
</region>

<region>
end=362175
hivel=127
key=F5
lovel=1
offset=2927
sample=Electric_sustain_MF_F5_RR1.opus
</region>

<region>
end=361133
hivel=127
key=G#2
lovel=1
offset=2553
sample=Electric_sustain_MF_G#2_RR1.opus
</region>

<region>
end=366308
hivel=127
key=G#3
lovel=1
offset=6965
sample=Electric_sustain_MF_G#3_RR1.opus
</region>

<region>
end=361235
hivel=127
key=G#4
lovel=1
offset=1572
sample=Electric_sustain_MF_G#4_RR1.opus
</region>

<region>
end=363146
hivel=127
key=G2
lovel=1
offset=2353
sample=Electric_sustain_MF_G2_RR1.opus
</region>

<region>
end=369600
hivel=127
key=G3
lovel=1
offset=10389
sample=Electric_sustain_MF_G3_RR1.opus
</region>

<region>
end=369290
hivel=127
key=G4
lovel=1
offset=9925
sample=Electric_sustain_MF_G4_RR1.opus
</region>

<region>
end=361002
hikey=C6
hivel=127
lokey=G5
lovel=1
offset=2156
pitch_keycenter=G5
sample=Electric_sustain_MF_G5_RR1.opus
</region>
</group>

<group>
group_label=RR2
seq_length=2
seq_position=2

<region>
end=365393
hivel=127
key=A#2
lovel=1
offset=2354
sample=Electric_sustain_MF_A#2_RR2.opus
</region>

<region>
end=361583
hivel=127
key=A#3
lovel=1
offset=3261
sample=Electric_sustain_MF_A#3_RR2.opus
</region>

<region>
end=361302
hivel=127
key=A#4
lovel=1
offset=3460
sample=Electric_sustain_MF_A#4_RR2.opus
</region>

<region>
end=362706
hivel=127
key=A2
lovel=1
offset=2639
sample=Electric_sustain_MF_A2_RR2.opus
</region>

<region>
end=368366
hivel=127
key=A3
lovel=1
offset=8416
sample=Electric_sustain_MF_A3_RR2.opus
</region>

<region>
end=367677
hivel=127
key=A4
lovel=1
offset=9070
sample=Electric_sustain_MF_A4_RR2.opus
</region>

<region>
end=363529
hivel=127
key=B2
lovel=1
offset=3827
sample=Electric_sustain_MF_B2_RR2.opus
</region>

<region>
end=361212
hivel=127
key=B3
lovel=1
offset=2284
sample=Electric_sustain_MF_B3_RR2.opus
</region>

<region>
end=363179
hivel=127
key=B4
lovel=1
offset=2615
sample=Electric_sustain_MF_B4_RR2.opus
</region>

<region>
end=361503
hivel=127
key=C#3
lovel=1
offset=2334
sample=Electric_sustain_MF_C#3_RR2.opus
</region>

<region>
end=361662
hivel=127
key=C#4
lovel=1
offset=1778
sample=Electric_sustain_MF_C#4_RR2.opus
</region>

<region>
end=204074
hivel=127
key=C#5
lovel=1
offset=1627
sample=Electric_sustain_MF_C#5_RR2.opus
</region>

<region>
end=363868
hivel=127
key=C3
lovel=1
offset=2174
sample=Electric_sustain_MF_C3_RR2.opus
</region>

<region>
end=361661
hikey=C4
hivel=127
lokey=C4
lovel=1
offset=2227
sample=Electric_sustain_MF_C4_RR2.opus
</region>

<region>
end=362602
hivel=127
key=C5
lovel=1
offset=1992
sample=Electric_sustain_MF_C5_RR2.opus
</region>

<region>
end=369600
hivel=127
key=D#3
lovel=1
offset=9065
sample=Electric_sustain_MF_D#3_RR2.opus
</region>

<region>
end=362067
hivel=127
key=D#4
lovel=1
offset=2786
sample=Electric_sustain_MF_D#4_RR2.opus
</region>

<region>
end=363256
hivel=127
key=D#5
lovel=1
offset=2970
sample=Electric_sustain_MF_D#5_RR2.opus
</region>

<region>
end=338578
hivel=127
key=D3
lovel=1
offset=2419
sample=Electric_sustain_MF_D3_RR2.opus
</region>

<region>
end=369600
hivel=127
key=D4
lovel=1
offset=9987
sample=Electric_sustain_MF_D4_RR2.opus
</region>

<region>
end=365677
hivel=127
key=D5
lovel=1
offset=5145
sample=Electric_sustain_MF_D5_RR2.opus
</region>

<region>
end=362886
hikey=E2
hivel=127
lokey=C2
lovel=1
offset=2984
pitch_keycenter=E2
sample=Electric_sustain_MF_E2_RR2.opus
</region>

<region>
end=360921
hivel=127
key=E3
lovel=1
offset=2797
sample=Electric_sustain_MF_E3_RR2.opus
</region>

<region>
end=369600
hivel=127
key=E4
lovel=1
offset=8196
sample=Electric_sustain_MF_E4_RR2.opus
</region>

<region>
end=369600
hivel=127
key=E5
lovel=1
offset=10221
sample=Electric_sustain_MF_E5_RR2.opus
</region>

<region>
end=365738
hivel=127
key=F#2
lovel=1
offset=4296
sample=Electric_sustain_MF_F#2_RR2.opus
</region>

<region>
end=347763
hivel=127
key=F#3
lovel=1
offset=9599
sample=Electric_sustain_MF_F#3_RR2.opus
</region>

<region>
end=361777
hivel=127
key=F#4
lovel=1
offset=1768
sample=Electric_sustain_MF_F#4_RR2.opus
</region>

<region>
end=369600
hivel=127
key=F#5
lovel=1
offset=11464
sample=Electric_sustain_MF_F#5_RR2.opus
</region>

<region>
end=365619
hivel=127
key=F2
lovel=1
offset=4751
sample=Electric_sustain_MF_F2_RR2.opus
</region>

<region>
end=324331
hivel=127
key=F3
lovel=1
offset=9308
sample=Electric_sustain_MF_F3_RR2.opus
</region>

<region>
end=364753
hivel=127
key=F4
lovel=1
offset=4083
sample=Electric_sustain_MF_F4_RR2.opus
</region>

<region>
end=361919
hivel=127
key=F5
lovel=1
offset=1566
sample=Electric_sustain_MF_F5_RR2.opus
</region>

<region>
end=364896
hivel=127
key=G#2
lovel=1
offset=3366
sample=Electric_sustain_MF_G#2_RR2.opus
</region>

<region>
end=328226
hivel=127
key=G#3
lovel=1
offset=4883
sample=Electric_sustain_MF_G#3_RR2.opus
</region>

<region>
end=334596
hivel=127
key=G#4
lovel=1
offset=9050
sample=Electric_sustain_MF_G#4_RR2.opus
</region>

<region>
end=367029
hivel=127
key=G2
lovel=1
offset=4903
sample=Electric_sustain_MF_G2_RR2.opus
</region>

<region>
end=363326
hivel=127
key=G3
lovel=1
offset=3870
sample=Electric_sustain_MF_G3_RR2.opus
</region>

<region>
end=362759
hivel=127
key=G4
lovel=1
offset=2339
sample=Electric_sustain_MF_G4_RR2.opus
</region>

<region>
end=362297
hikey=C6
hivel=127
lokey=G5
lovel=1
offset=3131
pitch_keycenter=G5
sample=Electric_sustain_MF_G5_RR2.opus
</region>
</group>